/vscmnt/brussel_pixiu_data/_data_brussel/112/vsc11236/PredSimResults/SUBJ11opt3D/expIG/worker_04.mot
version=1
nRows=4
nColumns=50
inDegrees=yes
endheader
                time	         pelvis_tilt	         pelvis_list	     pelvis_rotation	           pelvis_tx	           pelvis_ty	           pelvis_tz	       hip_flexion_r	     hip_adduction_r	      hip_rotation_r	        knee_angle_r	       ankle_angle_r	         mtp_angle_r	       hip_flexion_l	     hip_adduction_l	      hip_rotation_l	        knee_angle_l	       ankle_angle_l	         mtp_angle_l	    lumbar_extension	      lumbar_bending	     lumbar_rotation	 ercspn_r/activation	 intobl_r/activation	 extobl_r/activation	    abd_r/activation	    add_r/activation	hamstrings_r/activation	bifemsh_r/activation	glut_max_r/activation	iliopsoas_r/activation	rect_fem_r/activation	  vasti_r/activation	gastroc_r/activation	 soleus_r/activation	tib_ant_r/activation	 ercspn_l/activation	 intobl_l/activation	 extobl_l/activation	    abd_l/activation	    add_l/activation	hamstrings_l/activation	bifemsh_l/activation	glut_max_l/activation	iliopsoas_l/activation	rect_fem_l/activation	  vasti_l/activation	gastroc_l/activation	 soleus_l/activation	tib_ant_l/activation	
          2.27508787	         -2.59636434	          0.41615871	         -5.34692211	          2.04757908	          0.94714987	          0.00739058	        -12.01230114	         -2.45849645	         -3.39702762	        -12.72549164	         13.25043609	         26.63857931	         29.65493348	         -2.43188638	         -3.38349676	        -10.21754387	          0.74227288	          0.23972745	        -14.66383161	          3.20379553	          3.14836946	          0.01000000	          0.00999999	          0.00999999	          0.04119139	          0.01252779	          0.01248342	          0.13718883	          0.01868074	          0.03969090	          0.01028210	          0.00999999	          0.12552426	          0.29234085	          0.01252786	          0.01469116	          0.22140055	          0.06763225	          0.00999999	          0.17558298	          0.01241316	          0.08728504	          0.06464654	          0.08528030	          0.04395265	          0.01617233	          0.00999999	          0.00999999	          0.36547350	
          2.29025512	         -2.75877040	          0.44105752	         -5.30472411	          2.06507149	          0.94504233	          0.00552856	        -12.53814309	         -2.68018984	         -3.85617563	        -13.39475228	         12.63466333	         28.26064629	         29.19618564	         -2.21975501	         -3.51053935	        -10.89136212	          0.24964609	          0.20483503	        -14.22295345	          2.71332494	          3.41452099	          0.00999999	          0.00999999	          0.01252786	          0.03287979	          0.01000000	          0.01474980	          0.10950686	          0.01692729	          0.03168207	          0.00999999	          0.00999999	          0.10019597	          0.27588735	          0.00999999	          0.01172678	          0.19386369	          0.05398541	          0.02570943	          0.14628162	          0.03923523	          0.06967266	          0.07634104	          0.06807244	          0.03508389	          0.01290908	          0.01252786	          0.01252786	          0.40477324	
          2.30542237	         -2.90082818	          0.47869714	         -5.23764557	          2.08290828	          0.94337095	          0.00357355	        -12.92994682	         -2.93092187	         -4.32218292	        -14.34432468	         11.83497463	         29.96888717	         28.73093116	         -2.02310111	         -3.70597318	        -11.60465910	         -0.45104952	          0.19987612	        -13.75655241	          2.19922707	          3.67415073	          0.01000000	          0.00999999	          0.00999999	          0.02624531	          0.00999999	          0.01177359	          0.08741056	          0.01351170	          0.02528926	          0.01000003	          0.01000001	          0.07997842	          0.25399050	          0.00999999	          0.01945672	          0.15474586	          0.04309223	          0.06742523	          0.17748351	          0.04306166	          0.05561411	          0.07256515	          0.05433678	          0.02800466	          0.03478772	          0.00999999	          0.00999999	          0.47014777	
          2.32058962	         -3.02208938	          0.51484632	         -5.14380323	          2.10082175	          0.94235101	          0.00153428	        -13.08859531	         -3.20109835	         -4.79357124	        -15.70641064	         10.80495863	         31.77919884	         28.35784738	         -1.84603232	         -3.97217993	        -12.48963035	         -1.19807182	          0.15854197	        -13.29757035	          1.67990698	          3.92216984	          0.03324073	          0.00999999	          0.00999999	          0.02094953	          0.01000000	          0.02546697	          0.06977285	          0.01252787	          0.02018639	          0.01000000	          0.01742408	          0.06384037	          0.22744357	          0.00999999	          0.02142074	          0.12352123	          0.03439708	          0.09354065	          0.19142652	          0.04785904	          0.04439230	          0.05792295	          0.04337270	          0.02235388	          0.09324400	          0.00999999	          0.00999999	          0.51402038	
